<svg xmlns="http://www.w3.org/2000/svg" xmlns:xlink="http://www.w3.org/1999/xlink" width="125.858" height="110.224" viewBox="0 0 125.858 110.224">
  <defs>
    <linearGradient id="linear-gradient" y1="0.5" x2="1" y2="0.5" gradientUnits="objectBoundingBox">
      <stop offset="0" stop-color="#6ab444"/>
      <stop offset="0.04" stop-color="#61b144"/>
      <stop offset="0.23" stop-color="#3ea842"/>
      <stop offset="0.42" stop-color="#23a041"/>
      <stop offset="0.61" stop-color="#0f9a41"/>
      <stop offset="0.8" stop-color="#049740"/>
      <stop offset="1" stop-color="#009640"/>
    </linearGradient>
    <linearGradient id="linear-gradient-2" x1="0.559" y1="0.137" x2="0.302" y2="0.703" gradientUnits="objectBoundingBox">
      <stop offset="0" stop-color="#009fe3"/>
      <stop offset="0.19" stop-color="#087ec7"/>
      <stop offset="0.38" stop-color="#0f63b0"/>
      <stop offset="0.59" stop-color="#144fa0"/>
      <stop offset="0.79" stop-color="#174496"/>
      <stop offset="1" stop-color="#184093"/>
    </linearGradient>
  </defs>
  <g id="Layer_2" data-name="Layer 2" transform="translate(-0.05 -0.016)">
    <g id="Layer_1" data-name="Layer 1">
      <path id="Path_5600" data-name="Path 5600" d="M33.39,62.74H18.77c-.64-1-1.29-2-1.92-3h15C32.34,60.74,32.85,61.74,33.39,62.74Z" fill="#144725" opacity="0.9"/>
      <path id="Path_5601" data-name="Path 5601" d="M85.35,17.24c-21,1-55.16-33.7-74-1-5.47,9.49-4.11,21.22,1,34h17c-5.56-22.5,3.89-32.11,19-34C57.6,15.08,75.05,24.17,85.35,17.24Z" fill="url(#linear-gradient)"/>
      <path id="Path_5602" data-name="Path 5602" d="M72.35,110.24C54,98.59,34.64,86.8,18.77,62.74H33.39C41.81,78.46,55.63,94.57,72.35,110.24Z" fill="#19a049"/>
      <path id="Path_5603" data-name="Path 5603" d="M68.35,62.24c6.75,1.68,11.91,4.37,12,13,0,2.58,1.11,4.61,4,5,2.2.29,6.85-3.82,12-13,8.51-15.19,11.67-29.95,8.82-40.88-5.79-14.13-18.68-18-34.82-17.12,25.6-11.8,49.74-17,55,14,2.92,17.29-6,33.88-18,50-10.59,14.2-21.86,26.4-29,25-4.3-.85-7.4-7.83-7.78-23.5A35.56,35.56,0,0,0,68.35,62.24Z" fill="url(#linear-gradient-2)"/>
      <path id="Path_5604" data-name="Path 5604" d="M92.85,45.74a7,7,0,0,0-6.53,4.5h-9l-5.92-25c-1-3-4-3-5.31,0l-8.69,36-9-23a3.12,3.12,0,0,0-6,0l-5.5,16H2c-2.6,1-2.6,4,0,5.36l37,.64c3.31,0,4.31-8,6.31-13l10,26c1,2,5,2,6,0l7-33.38,3,13.38c1,3,2,3,5,3H86.79a7,7,0,1,0,6.06-10.5Z" fill="#40ac48"/>
    </g>
  </g>
</svg>
